<svg version="1.1" xmlns="http://www.w3.org/2000/svg" viewBox="0 0 185.32152335151295 185.32152335151432" width="185.32152335151295" height="185.32152335151432">
  <!-- svg-source:excalidraw -->
  
  <defs>
    <style class="style-fonts">
      @font-face {
        font-family: "Virgil";
        src: url("https://excalidraw.com/Virgil.woff2");
      }
      @font-face {
        font-family: "Cascadia";
        src: url("https://excalidraw.com/Cascadia.woff2");
      }
    </style>
  </defs>
  <g stroke-linecap="round" transform="translate(9.99999999999909 10) rotate(0 82.66076167575693 82.66076167575704)"><path d="M21.03 30.2 C21.03 30.2, 21.03 30.2, 21.03 30.2 M21.03 30.2 C21.03 30.2, 21.03 30.2, 21.03 30.2 M7.04 56.72 C16.24 50.9, 21.89 40.9, 48.04 7.43 M7.63 59.51 C19.01 45.33, 29.65 33.93, 49.89 10.42 M5.72 74.09 C20.99 57.27, 33.62 39.06, 61.19 3.97 M2.97 74.68 C26.72 48.15, 47.14 23.59, 60.65 6.23 M7.43 86.25 C26.36 57.52, 48.22 34.42, 75.18 5.01 M4.38 87.37 C18.24 69.01, 32.41 50.27, 74.1 5.87 M5.33 95.52 C33.57 61.69, 61.5 30.44, 87.37 3.44 M5.09 99.15 C26.29 72.92, 49.82 47.83, 83.67 5.56 M10.21 108.31 C31.8 71.62, 61.57 48.23, 92.18 10.4 M8.98 105.41 C39.9 67.4, 72.6 30.77, 95.64 7.62 M8.33 116.05 C36.76 85.99, 64.36 52.02, 100.84 5.83 M10.76 115 C30.56 91.19, 49.97 71.11, 101.34 7.87 M17.78 119.48 C39.14 87.96, 66.83 64.81, 110.64 11.7 M16.6 123.21 C39.08 94.42, 60.95 70.19, 112.56 7.39 M22.28 125.6 C57.74 85.64, 98.18 37.58, 124.07 11.36 M20.33 131.39 C41.4 100.55, 65.9 74.88, 121.09 12.7 M25.75 135.25 C57.39 99.62, 88.4 64.64, 124.41 14.07 M26.17 135.25 C50.81 102.77, 83.2 66.07, 128.62 18.91 M31.98 141.26 C62.66 110.73, 86.19 73.71, 138.33 19.73 M30.91 141.65 C73.56 91.59, 116.08 43.79, 133.65 19.11 M31.14 151.57 C76.02 108.17, 110.16 67.26, 141.73 27.23 M34.54 148.43 C64.41 113.28, 96.13 77.54, 143.59 23.47 M38.22 153.34 C77.09 110.9, 115.04 62.2, 151.43 32.06 M41.16 155.22 C76.32 111.52, 111.16 71.37, 146.82 29.49 M49.49 157.81 C90.11 108.35, 128.56 61.13, 151.02 39.19 M47.63 157.01 C74.74 127.23, 100.73 98.32, 152.86 37.59 M53.02 161 C84.12 129.9, 109.54 97.93, 155.24 47.42 M56.5 159.46 C78.93 133.71, 99.5 107.6, 157.01 44.17 M67.73 161.52 C104.44 117.32, 142.31 74.55, 163.21 51.57 M63.28 161.46 C95.68 127.46, 123.98 93.33, 163.94 50.41 M72.52 161.69 C106.38 128.08, 131.63 92.7, 169.51 56.79 M71.97 166.92 C101.9 134.75, 126.03 107.2, 167.03 57.36 M84.75 163.2 C114.68 133.86, 137.46 102.82, 165.98 70.99 M81.8 165.12 C117.53 126.96, 146.46 89.95, 168.57 68.99 M90.05 167.48 C113.67 137.93, 139.3 114.08, 170.78 76.9 M95.37 165.75 C114.54 144.94, 132.78 122.15, 169.02 80.98 M107.41 168.3 C119.85 143.84, 144.72 118.57, 166.3 89.49 M104.03 164.24 C125.17 143.05, 144.81 121.64, 167.32 92.81 M125.56 160.62 C135.24 147.24, 145.04 128.36, 164.24 108.65 M122.62 157.26 C134.34 141.91, 149.37 126.63, 162.26 113.11" stroke="#c2c3c4" stroke-width="1" fill="none"></path><path d="M47.05 6.22 C56.11 0.45, 68.45 0.41, 79.37 0.62 C90.28 0.83, 101.91 3.33, 112.53 7.47 C123.14 11.6, 134.84 17.52, 143.05 25.44 C151.26 33.35, 157.89 44.18, 161.8 54.95 C165.71 65.73, 167.48 79.12, 166.51 90.07 C165.54 101.03, 161.41 110.89, 155.99 120.68 C150.57 130.48, 142.89 141.77, 133.98 148.83 C125.06 155.88, 113.34 160.76, 102.5 163 C91.66 165.23, 80.23 164.43, 68.93 162.24 C57.63 160.06, 43.85 156.12, 34.69 149.91 C25.53 143.7, 19.35 134.14, 13.97 124.99 C8.6 115.83, 4.07 106.06, 2.44 95.01 C0.81 83.95, 1.08 69.47, 4.21 58.63 C7.33 47.79, 6.64 39.54, 21.21 29.99 C35.78 20.43, 73.88 3.26, 91.62 1.29 C109.37 -0.68, 128.15 16.9, 127.67 18.17 M33.21 19.47 C41.46 12.75, 54.8 6.42, 66.16 3.63 C77.52 0.84, 91.1 0.87, 101.39 2.76 C111.67 4.65, 119.02 8.65, 127.87 14.97 C136.73 21.29, 148.33 31.42, 154.53 40.66 C160.74 49.91, 164.22 59.49, 165.1 70.45 C165.98 81.41, 163.04 95.05, 159.81 106.42 C156.58 117.8, 152.76 130.62, 145.71 138.71 C138.65 146.79, 127.94 150.6, 117.49 154.95 C107.04 159.3, 94.36 163.8, 83.01 164.82 C71.67 165.84, 59.24 165.65, 49.42 161.08 C39.61 156.51, 31.23 146.14, 24.11 137.41 C16.99 128.68, 10.36 119.27, 6.7 108.71 C3.03 98.15, 1.05 85.12, 2.13 74.05 C3.21 62.97, 8.49 51.52, 13.17 42.28 C17.84 33.05, 26.33 23.02, 30.18 18.62 C34.03 14.23, 34.58 14.66, 36.26 15.9" stroke="#c2c3c4" stroke-width="2" fill="none"></path></g><g transform="translate(39.72744296913697 59.11077655678423) rotate(0 52.983333587646484 33.60000000000002)"><text x="52.983333587646484" y="0" font-family="Virgil, Segoe UI Emoji" font-size="28px" fill="#c2c3c4" text-anchor="middle" style="white-space: pre;" direction="ltr" dominant-baseline="text-before-edge">PLACEH</text><text x="52.983333587646484" y="33.6" font-family="Virgil, Segoe UI Emoji" font-size="28px" fill="#c2c3c4" text-anchor="middle" style="white-space: pre;" direction="ltr" dominant-baseline="text-before-edge">OLDER</text></g></svg>